<svg viewBox="0 0 36 24" xmlns="http://www.w3.org/2000/svg">
  <defs>
    <linearGradient id="fav-green" x1="0%" y1="0%" x2="100%" y2="0%">
      <stop offset="0%" stop-color="#3d4a35" stop-opacity="0"/>
      <stop offset="100%" stop-color="#7ed957" stop-opacity="1"/>
    </linearGradient>
    <linearGradient id="fav-cyan" x1="0%" y1="0%" x2="100%" y2="0%">
      <stop offset="0%" stop-color="#2d3628" stop-opacity="0"/>
      <stop offset="100%" stop-color="#5ffbf1" stop-opacity="1"/>
    </linearGradient>
    <linearGradient id="fav-gold" x1="0%" y1="0%" x2="100%" y2="0%">
      <stop offset="0%" stop-color="#4a5942" stop-opacity="0"/>
      <stop offset="100%" stop-color="#d4a574" stop-opacity="1"/>
    </linearGradient>
  </defs>
  <path d="M 3 4 Q 4 3, 6 3.5 Q 12 3, 22 3.2 Q 28 3, 31 4 Q 33 4.8, 33 6 Q 33 7.2, 31 8 Q 28 8.8, 22 8.5 Q 12 9, 6 8.5 Q 4 8.2, 3 7.2 Q 2 6.5, 2 5.8 Q 2 4.8, 3 4 Z" fill="url(#fav-green)"/>
  <path d="M 8 8.5 Q 10 7.8, 12 8 Q 18 7.5, 24 7.8 Q 29 7.5, 31 8.5 Q 33 9.3, 33 10.5 Q 33 11.7, 31 12.5 Q 29 13.3, 24 13 Q 18 13.5, 12 13 Q 10 13.2, 8 12.3 Q 6 11.5, 6 10.5 Q 6 9.5, 8 8.5 Z" fill="url(#fav-cyan)"/>
  <path d="M 3 13 Q 4 12, 6 12.5 Q 12 12, 22 12.2 Q 28 12, 31 13 Q 33 13.8, 33 15 Q 33 16.2, 31 17 Q 28 17.8, 22 17.5 Q 12 18, 6 17.5 Q 4 17.2, 3 16.2 Q 2 15.5, 2 14.8 Q 2 13.8, 3 13 Z" fill="url(#fav-gold)"/>
</svg>
