<svg viewBox="0 0 1280 640" xmlns="http://www.w3.org/2000/svg">
  <!-- GitHub Social Preview 1280x640 -->
  <defs>
    <linearGradient id="gh-green" x1="0%" y1="0%" x2="100%" y2="0%">
      <stop offset="0%" stop-color="#3d4a35" stop-opacity="0"/>
      <stop offset="100%" stop-color="#7ed957"/>
    </linearGradient>
    <linearGradient id="gh-cyan" x1="0%" y1="0%" x2="100%" y2="0%">
      <stop offset="0%" stop-color="#2d3628" stop-opacity="0"/>
      <stop offset="100%" stop-color="#5ffbf1"/>
    </linearGradient>
    <linearGradient id="gh-gold" x1="0%" y1="0%" x2="100%" y2="0%">
      <stop offset="0%" stop-color="#4a5942" stop-opacity="0"/>
      <stop offset="100%" stop-color="#d4a574"/>
    </linearGradient>
    <radialGradient id="gh-glow-green" cx="15%" cy="25%" r="45%">
      <stop offset="0%" stop-color="#7ed957" stop-opacity="0.08"/>
      <stop offset="100%" stop-color="#7ed957" stop-opacity="0"/>
    </radialGradient>
    <radialGradient id="gh-glow-cyan" cx="85%" cy="55%" r="40%">
      <stop offset="0%" stop-color="#5ffbf1" stop-opacity="0.06"/>
      <stop offset="100%" stop-color="#5ffbf1" stop-opacity="0"/>
    </radialGradient>
    <radialGradient id="gh-glow-gold" cx="40%" cy="85%" r="35%">
      <stop offset="0%" stop-color="#d4a574" stop-opacity="0.05"/>
      <stop offset="100%" stop-color="#d4a574" stop-opacity="0"/>
    </radialGradient>
  </defs>

  <!-- Background -->
  <rect width="1280" height="640" fill="#0d100b"/>

  <!-- Ambient glow effects -->
  <rect width="1280" height="640" fill="url(#gh-glow-green)"/>
  <rect width="1280" height="640" fill="url(#gh-glow-cyan)"/>
  <rect width="1280" height="640" fill="url(#gh-glow-gold)"/>

  <!-- Logo mark (centered, scaled 5x) -->
  <g transform="translate(340, 200) scale(5)">
    <path d="M 12 16 Q 14 13, 20 14 Q 40 12, 70 13 Q 90 12, 100 16 Q 108 19, 108 24 Q 108 29, 100 32 Q 90 35, 70 34 Q 40 36, 20 34 Q 14 33, 12 29 Q 10 26, 10 23 Q 10 19, 12 16 Z" fill="url(#gh-green)"/>
    <path d="M 28 34 Q 32 31, 40 32 Q 60 30, 80 31 Q 95 30, 102 34 Q 108 37, 108 42 Q 108 47, 102 50 Q 95 53, 80 52 Q 60 54, 40 52 Q 32 53, 28 49 Q 24 46, 24 42 Q 24 38, 28 34 Z" fill="url(#gh-cyan)"/>
    <path d="M 12 52 Q 14 49, 20 50 Q 40 48, 70 49 Q 90 48, 100 52 Q 108 55, 108 60 Q 108 65, 100 68 Q 90 71, 70 70 Q 40 72, 20 70 Q 14 69, 12 65 Q 10 62, 10 59 Q 10 55, 12 52 Z" fill="url(#gh-gold)"/>
  </g>

  <!-- Text below -->
  <text x="640" y="580" text-anchor="middle" font-family="Outfit, sans-serif" font-size="36" font-weight="600" fill="#f5f1e8">s3 labs Design System</text>
</svg>
