<svg viewBox="0 0 1500 500" xmlns="http://www.w3.org/2000/svg">
  <!-- Twitter Header 1500x500 -->
  <defs>
    <linearGradient id="tw-green" x1="0%" y1="0%" x2="100%" y2="0%">
      <stop offset="0%" stop-color="#3d4a35" stop-opacity="0"/>
      <stop offset="100%" stop-color="#7ed957"/>
    </linearGradient>
    <linearGradient id="tw-cyan" x1="0%" y1="0%" x2="100%" y2="0%">
      <stop offset="0%" stop-color="#2d3628" stop-opacity="0"/>
      <stop offset="100%" stop-color="#5ffbf1"/>
    </linearGradient>
    <linearGradient id="tw-gold" x1="0%" y1="0%" x2="100%" y2="0%">
      <stop offset="0%" stop-color="#4a5942" stop-opacity="0"/>
      <stop offset="100%" stop-color="#d4a574"/>
    </linearGradient>
    <radialGradient id="tw-glow-green" cx="5%" cy="30%" r="40%">
      <stop offset="0%" stop-color="#7ed957" stop-opacity="0.08"/>
      <stop offset="100%" stop-color="#7ed957" stop-opacity="0"/>
    </radialGradient>
    <radialGradient id="tw-glow-cyan" cx="95%" cy="50%" r="35%">
      <stop offset="0%" stop-color="#5ffbf1" stop-opacity="0.06"/>
      <stop offset="100%" stop-color="#5ffbf1" stop-opacity="0"/>
    </radialGradient>
  </defs>

  <!-- Background -->
  <rect width="1500" height="500" fill="#0d100b"/>

  <!-- Ambient glow effects -->
  <rect width="1500" height="500" fill="url(#tw-glow-green)"/>
  <rect width="1500" height="500" fill="url(#tw-glow-cyan)"/>

  <!-- Logo mark (scaled 3x, centered) -->
  <g transform="translate(390, 130) scale(3)">
    <path d="M 12 16 Q 14 13, 20 14 Q 40 12, 70 13 Q 90 12, 100 16 Q 108 19, 108 24 Q 108 29, 100 32 Q 90 35, 70 34 Q 40 36, 20 34 Q 14 33, 12 29 Q 10 26, 10 23 Q 10 19, 12 16 Z" fill="url(#tw-green)"/>
    <path d="M 28 34 Q 32 31, 40 32 Q 60 30, 80 31 Q 95 30, 102 34 Q 108 37, 108 42 Q 108 47, 102 50 Q 95 53, 80 52 Q 60 54, 40 52 Q 32 53, 28 49 Q 24 46, 24 42 Q 24 38, 28 34 Z" fill="url(#tw-cyan)"/>
    <path d="M 12 52 Q 14 49, 20 50 Q 40 48, 70 49 Q 90 48, 100 52 Q 108 55, 108 60 Q 108 65, 100 68 Q 90 71, 70 70 Q 40 72, 20 70 Q 14 69, 12 65 Q 10 62, 10 59 Q 10 55, 12 52 Z" fill="url(#tw-gold)"/>
  </g>

  <!-- Wordmark -->
  <text x="780" y="230" font-family="Outfit, sans-serif" font-size="64" font-weight="800" fill="#7ed957">s3</text>
  <text x="875" y="230" font-family="Outfit, sans-serif" font-size="64" font-weight="400" fill="#4a5942">·</text>
  <text x="910" y="230" font-family="Outfit, sans-serif" font-size="64" font-weight="300" fill="#f5f1e8">labs</text>

  <!-- Tagline -->
  <text x="780" y="300" font-family="Fraunces, serif" font-style="italic" font-size="24" fill="#6a7858">solarpunk synthesis</text>
</svg>
