<svg viewBox="0 0 320 80" xmlns="http://www.w3.org/2000/svg">
  <!-- Full logo for light backgrounds -->
  <defs>
    <linearGradient id="s3-logo-green-light" x1="0%" y1="0%" x2="100%" y2="0%">
      <stop offset="0%" stop-color="#3d4a35" stop-opacity="0"/>
      <stop offset="100%" stop-color="#4a6830" stop-opacity="1"/>
    </linearGradient>
    <linearGradient id="s3-logo-cyan-light" x1="0%" y1="0%" x2="100%" y2="0%">
      <stop offset="0%" stop-color="#2d3628" stop-opacity="0"/>
      <stop offset="100%" stop-color="#2a8a82" stop-opacity="1"/>
    </linearGradient>
    <linearGradient id="s3-logo-gold-light" x1="0%" y1="0%" x2="100%" y2="0%">
      <stop offset="0%" stop-color="#4a5942" stop-opacity="0"/>
      <stop offset="100%" stop-color="#8a6538" stop-opacity="1"/>
    </linearGradient>
  </defs>
  <!-- Spectral Flow Mark -->
  <path d="M 12 16 Q 14 13, 20 14 Q 40 12, 70 13 Q 90 12, 100 16 Q 108 19, 108 24 Q 108 29, 100 32 Q 90 35, 70 34 Q 40 36, 20 34 Q 14 33, 12 29 Q 10 26, 10 23 Q 10 19, 12 16 Z" fill="url(#s3-logo-green-light)"/>
  <path d="M 28 34 Q 32 31, 40 32 Q 60 30, 80 31 Q 95 30, 102 34 Q 108 37, 108 42 Q 108 47, 102 50 Q 95 53, 80 52 Q 60 54, 40 52 Q 32 53, 28 49 Q 24 46, 24 42 Q 24 38, 28 34 Z" fill="url(#s3-logo-cyan-light)"/>
  <path d="M 12 52 Q 14 49, 20 50 Q 40 48, 70 49 Q 90 48, 100 52 Q 108 55, 108 60 Q 108 65, 100 68 Q 90 71, 70 70 Q 40 72, 20 70 Q 14 69, 12 65 Q 10 62, 10 59 Q 10 55, 12 52 Z" fill="url(#s3-logo-gold-light)"/>
  <!-- Wordmark: s3·labs (dark text for light backgrounds) -->
  <text x="130" y="54" font-family="Outfit, sans-serif" font-size="36" font-weight="800" fill="#4a6830">s3</text>
  <text x="182" y="54" font-family="Outfit, sans-serif" font-size="36" font-weight="400" fill="#6a7858">·</text>
  <text x="196" y="54" font-family="Outfit, sans-serif" font-size="36" font-weight="300" fill="#0d100b">labs</text>
</svg>
