<svg viewBox="0 0 120 80" xmlns="http://www.w3.org/2000/svg">
  <!-- Dark/Void mono version for light backgrounds -->
  <defs>
    <linearGradient id="s3-mono-void" x1="0%" y1="0%" x2="100%" y2="0%">
      <stop offset="0%" stop-color="#0d100b" stop-opacity="0"/>
      <stop offset="100%" stop-color="#0d100b" stop-opacity="1"/>
    </linearGradient>
  </defs>
  <path d="M 12 16 Q 14 13, 20 14 Q 40 12, 70 13 Q 90 12, 100 16 Q 108 19, 108 24 Q 108 29, 100 32 Q 90 35, 70 34 Q 40 36, 20 34 Q 14 33, 12 29 Q 10 26, 10 23 Q 10 19, 12 16 Z" fill="url(#s3-mono-void)"/>
  <path d="M 28 34 Q 32 31, 40 32 Q 60 30, 80 31 Q 95 30, 102 34 Q 108 37, 108 42 Q 108 47, 102 50 Q 95 53, 80 52 Q 60 54, 40 52 Q 32 53, 28 49 Q 24 46, 24 42 Q 24 38, 28 34 Z" fill="url(#s3-mono-void)"/>
  <path d="M 12 52 Q 14 49, 20 50 Q 40 48, 70 49 Q 90 48, 100 52 Q 108 55, 108 60 Q 108 65, 100 68 Q 90 71, 70 70 Q 40 72, 20 70 Q 14 69, 12 65 Q 10 62, 10 59 Q 10 55, 12 52 Z" fill="url(#s3-mono-void)"/>
</svg>
